  0
SECTION
  2
BLOCKS
  0
ENDSEC
  0
SECTION
  2
ENTITIES
  0
LINE
  8
0
 10
143.205
 20
127.429
 11
141.476
 21
136.496
  0
LINE
  8
0
 10
141.476
 20
136.496
 11
138.624
 21
145.274
  0
LINE
  8
0
 10
138.624
 20
145.274
 11
134.693
 21
153.626
  0
LINE
  8
0
 10
134.693
 20
153.626
 11
129.748
 21
161.419
  0
LINE
  8
0
 10
129.748
 20
161.419
 11
123.864
 21
168.531
  0
LINE
  8
0
 10
123.864
 20
168.531
 11
117.136
 21
174.85
  0
LINE
  8
0
 10
117.136
 20
174.85
 11
109.668
 21
180.275
  0
LINE
  8
0
 10
109.668
 20
180.275
 11
101.58
 21
184.722
  0
LINE
  8
0
 10
101.58
 20
184.722
 11
92.9977
 21
188.12
  0
LINE
  8
0
 10
92.9977
 20
188.12
 11
84.0575
 21
190.415
  0
LINE
  8
0
 10
84.0575
 20
190.415
 11
82.0448
 21
190.67
  0
LINE
  8
0
 10
82.0448
 20
190.67
 11
82.5322
 21
193.433
  0
LINE
  8
0
 10
82.5322
 20
193.433
 11
79.5236
 21
193.964
  0
LINE
  8
0
 10
79.5236
 20
193.964
 11
81.6073
 21
205.781
  0
LINE
  8
0
 10
81.6073
 20
205.781
 11
67.9727
 21
208.186
  0
LINE
  8
0
 10
67.9727
 20
208.186
 11
65.8889
 21
196.368
  0
LINE
  8
0
 10
65.8889
 20
196.368
 11
62.8803
 21
196.898
  0
LINE
  8
0
 10
62.8803
 20
196.898
 11
64.9641
 21
208.716
  0
LINE
  8
0
 10
64.9641
 20
208.716
 11
64.9198
 21
208.724
  0
LINE
  8
0
 10
64.9198
 20
208.724
 11
61.8095
 21
191.084
  0
LINE
  8
0
 10
61.8095
 20
191.084
 11
56.5125
 21
190.415
  0
LINE
  8
0
 10
56.5125
 20
190.415
 11
47.5723
 21
188.12
  0
LINE
  8
0
 10
47.5723
 20
188.12
 11
38.9902
 21
184.722
  0
LINE
  8
0
 10
38.9902
 20
184.722
 11
30.9017
 21
180.275
  0
LINE
  8
0
 10
30.9017
 20
180.275
 11
23.4343
 21
174.85
  0
LINE
  8
0
 10
23.4343
 20
174.85
 11
16.7058
 21
168.531
  0
LINE
  8
0
 10
16.7058
 20
168.531
 11
10.8223
 21
161.419
  0
LINE
  8
0
 10
10.8223
 20
161.419
 11
5.87645
 21
153.626
  0
LINE
  8
0
 10
5.87645
 20
153.626
 11
1.94641
 21
145.274
  0
LINE
  8
0
 10
1.94641
 20
145.274
 11
-0.905869
 21
136.496
  0
LINE
  8
0
 10
-0.905869
 20
136.496
 11
-2.63542
 21
127.429
  0
LINE
  8
0
 10
-2.63542
 20
127.429
 11
-3.215
 21
118.217
  0
LINE
  8
0
 10
-3.215
 20
118.217
 11
143.785
 21
118.217
  0
LINE
  8
0
 10
143.785
 20
118.217
 11
143.205
 21
127.429
  0
LINE
  8
0
 10
58.7128
 20
173.263
 11
60.7965
 21
185.081
  0
LINE
  8
0
 10
60.7965
 20
185.081
 11
63.8051
 21
184.55
  0
LINE
  8
0
 10
63.8051
 20
184.55
 11
61.7213
 21
172.732
  0
LINE
  8
0
 10
61.7213
 20
172.732
 11
58.7128
 21
173.263
  0
LINE
  8
0
 10
75.356
 20
170.328
 11
77.4398
 21
182.146
  0
LINE
  8
0
 10
77.4398
 20
182.146
 11
80.4484
 21
181.615
  0
LINE
  8
0
 10
80.4484
 20
181.615
 11
78.3646
 21
169.798
  0
LINE
  8
0
 10
78.3646
 20
169.798
 11
75.356
 21
170.328
  0
LINE
  8
0
 10
54.5452
 20
149.628
 11
56.629
 21
161.445
  0
LINE
  8
0
 10
56.629
 20
161.445
 11
59.6375
 21
160.915
  0
LINE
  8
0
 10
59.6375
 20
160.915
 11
57.5538
 21
149.097
  0
LINE
  8
0
 10
57.5538
 20
149.097
 11
54.5452
 21
149.628
  0
LINE
  8
0
 10
71.1884
 20
146.693
 11
73.2722
 21
158.511
  0
LINE
  8
0
 10
73.2722
 20
158.511
 11
76.2808
 21
157.98
  0
LINE
  8
0
 10
76.2808
 20
157.98
 11
74.197
 21
146.162
  0
LINE
  8
0
 10
74.197
 20
146.162
 11
71.1884
 21
146.693
  0
LINE
  8
0
 10
50.316
 20
125.902
 11
50.8465
 21
128.91
  0
LINE
  8
0
 10
50.8465
 20
128.91
 11
50.8908
 21
128.902
  0
LINE
  8
0
 10
50.8908
 20
128.902
 11
52.4614
 21
137.81
  0
LINE
  8
0
 10
52.4614
 20
137.81
 11
55.47
 21
137.279
  0
LINE
  8
0
 10
55.47
 20
137.279
 11
53.3862
 21
125.462
  0
LINE
  8
0
 10
53.3862
 20
125.462
 11
53.147
 21
125.504
  0
LINE
  8
0
 10
53.147
 20
125.504
 11
53.1297
 21
125.405
  0
LINE
  8
0
 10
53.1297
 20
125.405
 11
50.316
 21
125.902
  0
LINE
  8
0
 10
67.1984
 20
122.925
 11
67.2157
 21
123.023
  0
LINE
  8
0
 10
67.2157
 20
123.023
 11
67.0209
 21
123.058
  0
LINE
  8
0
 10
67.0209
 20
123.058
 11
69.1047
 21
134.875
  0
LINE
  8
0
 10
69.1047
 20
134.875
 11
72.1133
 21
134.345
  0
LINE
  8
0
 10
72.1133
 20
134.345
 11
70.0121
 21
122.429
  0
LINE
  8
0
 10
70.0121
 20
122.429
 11
67.1984
 21
122.925
  0
LINE
  8
0
 10
55.9434
 20
124.909
 11
56.4739
 21
127.918
  0
LINE
  8
0
 10
56.4739
 20
127.918
 11
59.2877
 21
127.422
  0
LINE
  8
0
 10
59.2877
 20
127.422
 11
58.7572
 21
124.413
  0
LINE
  8
0
 10
58.7572
 20
124.413
 11
55.9434
 21
124.909
  0
LINE
  8
0
 10
61.5709
 20
123.917
 11
62.1014
 21
126.926
  0
LINE
  8
0
 10
62.1014
 20
126.926
 11
64.9151
 21
126.429
  0
LINE
  8
0
 10
64.9151
 20
126.429
 11
64.3846
 21
123.421
  0
LINE
  8
0
 10
64.3846
 20
123.421
 11
61.5709
 21
123.917
  0
LINE
  8
0
 10
22.4836
 20
3.05499
 11
44.8021
 21
3.05499
  0
LINE
  8
0
 10
44.8021
 20
3.05499
 11
44.8021
 21
0
  0
LINE
  8
0
 10
44.8021
 20
0
 11
67.3407
 21
0
  0
LINE
  8
0
 10
67.3407
 20
0
 11
67.3407
 21
3.05499
  0
LINE
  8
0
 10
67.3407
 20
3.05499
 11
89.6593
 21
3.05499
  0
LINE
  8
0
 10
89.6593
 20
3.05499
 11
89.6593
 21
0
  0
LINE
  8
0
 10
89.6593
 20
0
 11
112.198
 21
0
  0
LINE
  8
0
 10
112.198
 20
0
 11
112.198
 21
3.05499
  0
LINE
  8
0
 10
112.198
 20
3.05499
 11
134.516
 21
3.05499
  0
LINE
  8
0
 10
134.516
 20
3.05499
 11
134.516
 21
0
  0
LINE
  8
0
 10
134.516
 20
0
 11
157
 21
0
  0
LINE
  8
0
 10
157
 20
0
 11
157
 21
12.055
  0
LINE
  8
0
 10
157
 20
12.055
 11
153.945
 21
12.055
  0
LINE
  8
0
 10
153.945
 20
12.055
 11
153.945
 21
23.945
  0
LINE
  8
0
 10
153.945
 20
23.945
 11
157
 21
23.945
  0
LINE
  8
0
 10
157
 20
23.945
 11
157
 21
36.055
  0
LINE
  8
0
 10
157
 20
36.055
 11
153.945
 21
36.055
  0
LINE
  8
0
 10
153.945
 20
36.055
 11
153.945
 21
47.945
  0
LINE
  8
0
 10
153.945
 20
47.945
 11
157
 21
47.945
  0
LINE
  8
0
 10
157
 20
47.945
 11
157
 21
60.055
  0
LINE
  8
0
 10
157
 20
60.055
 11
153.945
 21
60.055
  0
LINE
  8
0
 10
153.945
 20
60.055
 11
153.945
 21
71.945
  0
LINE
  8
0
 10
153.945
 20
71.945
 11
157
 21
71.945
  0
LINE
  8
0
 10
157
 20
71.945
 11
157
 21
84
  0
LINE
  8
0
 10
157
 20
84
 11
144.961
 21
84
  0
LINE
  8
0
 10
144.961
 20
84
 11
148.054
 21
90.5718
  0
LINE
  8
0
 10
148.054
 20
90.5718
 11
150.906
 21
99.3503
  0
LINE
  8
0
 10
150.906
 20
99.3503
 11
152.635
 21
108.417
  0
LINE
  8
0
 10
152.635
 20
108.417
 11
153.215
 21
117.629
  0
LINE
  8
0
 10
153.215
 20
117.629
 11
6.21504
 21
117.629
  0
LINE
  8
0
 10
6.21504
 20
117.629
 11
6.7946
 21
108.417
  0
LINE
  8
0
 10
6.7946
 20
108.417
 11
8.52417
 21
99.3503
  0
LINE
  8
0
 10
8.52417
 20
99.3503
 11
11.3765
 21
90.5718
  0
LINE
  8
0
 10
11.3765
 20
90.5718
 11
15.3065
 21
82.2201
  0
LINE
  8
0
 10
15.3065
 20
82.2201
 11
20.2523
 21
74.4268
  0
LINE
  8
0
 10
20.2523
 20
74.4268
 11
26.1358
 21
67.3148
  0
LINE
  8
0
 10
26.1358
 20
67.3148
 11
32.8644
 21
60.9962
  0
LINE
  8
0
 10
32.8644
 20
60.9962
 11
40.3318
 21
55.5709
  0
LINE
  8
0
 10
40.3318
 20
55.5709
 11
48.4203
 21
51.1242
  0
LINE
  8
0
 10
48.4203
 20
51.1242
 11
57.0023
 21
47.7263
  0
LINE
  8
0
 10
57.0023
 20
47.7263
 11
65.9425
 21
45.4309
  0
LINE
  8
0
 10
65.9425
 20
45.4309
 11
67.9551
 21
45.1766
  0
LINE
  8
0
 10
67.9551
 20
45.1766
 11
67.4678
 21
42.413
  0
LINE
  8
0
 10
67.4678
 20
42.413
 11
70.4764
 21
41.8825
  0
LINE
  8
0
 10
70.4764
 20
41.8825
 11
68.3926
 21
30.0648
  0
LINE
  8
0
 10
68.3926
 20
30.0648
 11
82.0273
 21
27.6606
  0
LINE
  8
0
 10
82.0273
 20
27.6606
 11
84.1111
 21
39.4783
  0
LINE
  8
0
 10
84.1111
 20
39.4783
 11
87.1197
 21
38.9478
  0
LINE
  8
0
 10
87.1197
 20
38.9478
 11
85.0359
 21
27.1301
  0
LINE
  8
0
 10
85.0359
 20
27.1301
 11
85.0802
 21
27.1223
  0
LINE
  8
0
 10
85.0802
 20
27.1223
 11
88.1905
 21
44.7617
  0
LINE
  8
0
 10
88.1905
 20
44.7617
 11
93.4875
 21
45.4309
  0
LINE
  8
0
 10
93.4875
 20
45.4309
 11
102.428
 21
47.7263
  0
LINE
  8
0
 10
102.428
 20
47.7263
 11
111.01
 21
51.1242
  0
LINE
  8
0
 10
111.01
 20
51.1242
 11
119.098
 21
55.5709
  0
LINE
  8
0
 10
119.098
 20
55.5709
 11
126.566
 21
60.9963
  0
LINE
  8
0
 10
126.566
 20
60.9963
 11
133.294
 21
67.3148
  0
LINE
  8
0
 10
133.294
 20
67.3148
 11
139.178
 21
74.4268
  0
LINE
  8
0
 10
139.178
 20
74.4268
 11
144.124
 21
82.2201
  0
LINE
  8
0
 10
144.124
 20
82.2201
 11
144.866
 21
83.7976
  0
LINE
  8
0
 10
144.866
 20
83.7976
 11
145.17
 21
82.8612
  0
LINE
  8
0
 10
145.17
 20
82.8612
 11
145.417
 21
81.566
  0
LINE
  8
0
 10
145.417
 20
81.566
 11
145.5
 21
80.25
  0
LINE
  8
0
 10
145.5
 20
80.25
 11
145.5
 21
26.25
  0
LINE
  8
0
 10
145.5
 20
26.25
 11
145.417
 21
24.934
  0
LINE
  8
0
 10
145.417
 20
24.934
 11
145.17
 21
23.6388
  0
LINE
  8
0
 10
145.17
 20
23.6388
 11
144.763
 21
22.3847
  0
LINE
  8
0
 10
144.763
 20
22.3847
 11
144.201
 21
21.1916
  0
LINE
  8
0
 10
144.201
 20
21.1916
 11
143.495
 21
20.0783
  0
LINE
  8
0
 10
143.495
 20
20.0783
 11
142.654
 21
19.0623
  0
LINE
  8
0
 10
142.654
 20
19.0623
 11
141.693
 21
18.1596
  0
LINE
  8
0
 10
141.693
 20
18.1596
 11
140.626
 21
17.3846
  0
LINE
  8
0
 10
140.626
 20
17.3846
 11
139.471
 21
16.7493
  0
LINE
  8
0
 10
139.471
 20
16.7493
 11
138.245
 21
16.2639
  0
LINE
  8
0
 10
138.245
 20
16.2639
 11
136.967
 21
15.936
  0
LINE
  8
0
 10
136.967
 20
15.936
 11
135.659
 21
15.7707
  0
LINE
  8
0
 10
135.659
 20
15.7707
 11
22.3407
 21
15.7707
  0
LINE
  8
0
 10
22.3407
 20
15.7707
 11
21.0325
 21
15.936
  0
LINE
  8
0
 10
21.0325
 20
15.936
 11
19.7553
 21
16.2639
  0
LINE
  8
0
 10
19.7553
 20
16.2639
 11
18.5293
 21
16.7493
  0
LINE
  8
0
 10
18.5293
 20
16.7493
 11
17.3738
 21
17.3846
  0
LINE
  8
0
 10
17.3738
 20
17.3846
 11
16.3071
 21
18.1596
  0
LINE
  8
0
 10
16.3071
 20
18.1596
 11
15.3458
 21
19.0623
  0
LINE
  8
0
 10
15.3458
 20
19.0623
 11
14.5053
 21
20.0783
  0
LINE
  8
0
 10
14.5053
 20
20.0783
 11
13.7988
 21
21.1916
  0
LINE
  8
0
 10
13.7988
 20
21.1916
 11
13.2374
 21
22.3847
  0
LINE
  8
0
 10
13.2374
 20
22.3847
 11
12.8299
 21
23.6388
  0
LINE
  8
0
 10
12.8299
 20
23.6388
 11
12.5828
 21
24.934
  0
LINE
  8
0
 10
12.5828
 20
24.934
 11
12.5
 21
26.25
  0
LINE
  8
0
 10
12.5
 20
26.25
 11
12.5
 21
80.25
  0
LINE
  8
0
 10
12.5
 20
80.25
 11
12.5828
 21
81.566
  0
LINE
  8
0
 10
12.5828
 20
81.566
 11
12.8299
 21
82.8612
  0
LINE
  8
0
 10
12.8299
 20
82.8612
 11
13.1999
 21
84
  0
LINE
  8
0
 10
13.1999
 20
84
 11
0
 21
84
  0
LINE
  8
0
 10
0
 20
84
 11
0
 21
71.945
  0
LINE
  8
0
 10
0
 20
71.945
 11
3
 21
71.945
  0
LINE
  8
0
 10
3
 20
71.945
 11
3
 21
60.055
  0
LINE
  8
0
 10
3
 20
60.055
 11
0
 21
60.055
  0
LINE
  8
0
 10
0
 20
60.055
 11
0
 21
47.945
  0
LINE
  8
0
 10
0
 20
47.945
 11
3
 21
47.945
  0
LINE
  8
0
 10
3
 20
47.945
 11
3
 21
36.055
  0
LINE
  8
0
 10
3
 20
36.055
 11
0
 21
36.055
  0
LINE
  8
0
 10
0
 20
36.055
 11
0
 21
23.945
  0
LINE
  8
0
 10
0
 20
23.945
 11
3
 21
23.945
  0
LINE
  8
0
 10
3
 20
23.945
 11
3
 21
12.055
  0
LINE
  8
0
 10
3
 20
12.055
 11
0
 21
12.055
  0
LINE
  8
0
 10
0
 20
12.055
 11
0
 21
0
  0
LINE
  8
0
 10
0
 20
0
 11
22.4836
 21
0
  0
LINE
  8
0
 10
22.4836
 20
0
 11
22.4836
 21
3.05499
  0
LINE
  8
0
 10
77.8867
 20
101.501
 11
79.9879
 21
113.418
  0
LINE
  8
0
 10
79.9879
 20
113.418
 11
82.8016
 21
112.921
  0
LINE
  8
0
 10
82.8016
 20
112.921
 11
82.7842
 21
112.823
  0
LINE
  8
0
 10
82.7842
 20
112.823
 11
82.9791
 21
112.789
  0
LINE
  8
0
 10
82.9791
 20
112.789
 11
80.8953
 21
100.971
  0
LINE
  8
0
 10
80.8953
 20
100.971
 11
77.8867
 21
101.501
  0
LINE
  8
0
 10
85.0849
 20
109.417
 11
85.6153
 21
112.425
  0
LINE
  8
0
 10
85.6153
 20
112.425
 11
88.4291
 21
111.929
  0
LINE
  8
0
 10
88.4291
 20
111.929
 11
87.8986
 21
108.921
  0
LINE
  8
0
 10
87.8986
 20
108.921
 11
85.0849
 21
109.417
  0
LINE
  8
0
 10
90.7123
 20
108.424
 11
91.2428
 21
111.433
  0
LINE
  8
0
 10
91.2428
 20
111.433
 11
94.0565
 21
110.937
  0
LINE
  8
0
 10
94.0565
 20
110.937
 11
93.5261
 21
107.928
  0
LINE
  8
0
 10
93.5261
 20
107.928
 11
90.7123
 21
108.424
  0
LINE
  8
0
 10
94.53
 20
98.5668
 11
96.6138
 21
110.384
  0
LINE
  8
0
 10
96.6138
 20
110.384
 11
96.8529
 21
110.342
  0
LINE
  8
0
 10
96.8529
 20
110.342
 11
96.8703
 21
110.441
  0
LINE
  8
0
 10
96.8703
 20
110.441
 11
99.684
 21
109.945
  0
LINE
  8
0
 10
99.684
 20
109.945
 11
99.1535
 21
106.936
  0
LINE
  8
0
 10
99.1535
 20
106.936
 11
99.1092
 21
106.944
  0
LINE
  8
0
 10
99.1092
 20
106.944
 11
97.5386
 21
98.0363
  0
LINE
  8
0
 10
97.5386
 20
98.0363
 11
94.53
 21
98.5668
  0
LINE
  8
0
 10
73.7192
 20
77.866
 11
75.8029
 21
89.6837
  0
LINE
  8
0
 10
75.8029
 20
89.6837
 11
78.8115
 21
89.1532
  0
LINE
  8
0
 10
78.8115
 20
89.1532
 11
76.7277
 21
77.3356
  0
LINE
  8
0
 10
76.7277
 20
77.3356
 11
73.7192
 21
77.866
  0
LINE
  8
0
 10
90.3624
 20
74.9314
 11
92.4462
 21
86.7491
  0
LINE
  8
0
 10
92.4462
 20
86.7491
 11
95.4548
 21
86.2186
  0
LINE
  8
0
 10
95.4548
 20
86.2186
 11
93.371
 21
74.4009
  0
LINE
  8
0
 10
93.371
 20
74.4009
 11
90.3624
 21
74.9314
  0
LINE
  8
0
 10
69.5516
 20
54.2307
 11
71.6354
 21
66.0484
  0
LINE
  8
0
 10
71.6354
 20
66.0484
 11
74.644
 21
65.5179
  0
LINE
  8
0
 10
74.644
 20
65.5179
 11
72.5602
 21
53.7002
  0
LINE
  8
0
 10
72.5602
 20
53.7002
 11
69.5516
 21
54.2307
  0
LINE
  8
0
 10
86.1949
 20
51.296
 11
88.2786
 21
63.1137
  0
LINE
  8
0
 10
88.2786
 20
63.1137
 11
91.2872
 21
62.5832
  0
LINE
  8
0
 10
91.2872
 20
62.5832
 11
89.2034
 21
50.7655
  0
LINE
  8
0
 10
89.2034
 20
50.7655
 11
86.1949
 21
51.296
  0
LINE
  8
0
 10
22.4836
 20
-207.945
 11
44.8021
 21
-207.945
  0
LINE
  8
0
 10
44.8021
 20
-207.945
 11
44.8021
 21
-211
  0
LINE
  8
0
 10
44.8021
 20
-211
 11
67.3407
 21
-211
  0
LINE
  8
0
 10
67.3407
 20
-211
 11
67.3407
 21
-207.945
  0
LINE
  8
0
 10
67.3407
 20
-207.945
 11
89.6593
 21
-207.945
  0
LINE
  8
0
 10
89.6593
 20
-207.945
 11
89.6593
 21
-211
  0
LINE
  8
0
 10
89.6593
 20
-211
 11
112.198
 21
-211
  0
LINE
  8
0
 10
112.198
 20
-211
 11
112.198
 21
-207.945
  0
LINE
  8
0
 10
112.198
 20
-207.945
 11
134.516
 21
-207.945
  0
LINE
  8
0
 10
134.516
 20
-207.945
 11
134.516
 21
-211
  0
LINE
  8
0
 10
134.516
 20
-211
 11
157
 21
-211
  0
LINE
  8
0
 10
157
 20
-211
 11
157
 21
-198.945
  0
LINE
  8
0
 10
157
 20
-198.945
 11
153.945
 21
-198.945
  0
LINE
  8
0
 10
153.945
 20
-198.945
 11
153.945
 21
-187.055
  0
LINE
  8
0
 10
153.945
 20
-187.055
 11
157
 21
-187.055
  0
LINE
  8
0
 10
157
 20
-187.055
 11
157
 21
-174.945
  0
LINE
  8
0
 10
157
 20
-174.945
 11
153.945
 21
-174.945
  0
LINE
  8
0
 10
153.945
 20
-174.945
 11
153.945
 21
-163.055
  0
LINE
  8
0
 10
153.945
 20
-163.055
 11
157
 21
-163.055
  0
LINE
  8
0
 10
157
 20
-163.055
 11
157
 21
-150.945
  0
LINE
  8
0
 10
157
 20
-150.945
 11
153.945
 21
-150.945
  0
LINE
  8
0
 10
153.945
 20
-150.945
 11
153.945
 21
-139.055
  0
LINE
  8
0
 10
153.945
 20
-139.055
 11
157
 21
-139.055
  0
LINE
  8
0
 10
157
 20
-139.055
 11
157
 21
-1
  0
LINE
  8
0
 10
157
 20
-1
 11
0
 21
-1
  0
LINE
  8
0
 10
0
 20
-1
 11
0
 21
-139.055
  0
LINE
  8
0
 10
0
 20
-139.055
 11
3
 21
-139.055
  0
LINE
  8
0
 10
3
 20
-139.055
 11
3
 21
-150.945
  0
LINE
  8
0
 10
3
 20
-150.945
 11
0
 21
-150.945
  0
LINE
  8
0
 10
0
 20
-150.945
 11
0
 21
-163.055
  0
LINE
  8
0
 10
0
 20
-163.055
 11
3
 21
-163.055
  0
LINE
  8
0
 10
3
 20
-163.055
 11
3
 21
-174.945
  0
LINE
  8
0
 10
3
 20
-174.945
 11
0
 21
-174.945
  0
LINE
  8
0
 10
0
 20
-174.945
 11
0
 21
-187.055
  0
LINE
  8
0
 10
0
 20
-187.055
 11
3
 21
-187.055
  0
LINE
  8
0
 10
3
 20
-187.055
 11
3
 21
-198.945
  0
LINE
  8
0
 10
3
 20
-198.945
 11
0
 21
-198.945
  0
LINE
  8
0
 10
0
 20
-198.945
 11
0
 21
-211
  0
LINE
  8
0
 10
0
 20
-211
 11
22.4836
 21
-211
  0
LINE
  8
0
 10
22.4836
 20
-211
 11
22.4836
 21
-207.945
  0
LINE
  8
0
 10
-3.95499
 20
-209.955
 11
-6.65927
 21
-209.955
  0
LINE
  8
0
 10
-6.65927
 20
-209.955
 11
-6.65927
 21
-206.9
  0
LINE
  8
0
 10
-6.65927
 20
-206.9
 11
-3.95499
 21
-206.9
  0
LINE
  8
0
 10
-3.95499
 20
-206.9
 11
-3.95497
 21
-187.571
  0
LINE
  8
0
 10
-3.95497
 20
-187.571
 11
-0.999985
 21
-187.571
  0
LINE
  8
0
 10
-0.999985
 20
-187.571
 11
-0.999985
 21
-165.143
  0
LINE
  8
0
 10
-0.999985
 20
-165.143
 11
-3.95497
 21
-165.143
  0
LINE
  8
0
 10
-3.95497
 20
-165.143
 11
-3.95497
 21
-142.714
  0
LINE
  8
0
 10
-3.95497
 20
-142.714
 11
-0.999985
 21
-142.714
  0
LINE
  8
0
 10
-0.999985
 20
-142.714
 11
-0.999985
 21
-120.286
  0
LINE
  8
0
 10
-0.999985
 20
-120.286
 11
-3.95497
 21
-120.286
  0
LINE
  8
0
 10
-3.95497
 20
-120.286
 11
-3.95497
 21
-97.8571
  0
LINE
  8
0
 10
-3.95497
 20
-97.8571
 11
-0.999985
 21
-97.8571
  0
LINE
  8
0
 10
-0.999985
 20
-97.8571
 11
-0.999985
 21
-75.4286
  0
LINE
  8
0
 10
-0.999985
 20
-75.4286
 11
-3.95497
 21
-75.4286
  0
LINE
  8
0
 10
-3.95497
 20
-75.4286
 11
-3.95497
 21
-56.055
  0
LINE
  8
0
 10
-3.95497
 20
-56.055
 11
-6.65926
 21
-56.055
  0
LINE
  8
0
 10
-6.65926
 20
-56.055
 11
-6.65926
 21
-53
  0
LINE
  8
0
 10
-6.65926
 20
-53
 11
-9.6264
 21
-53
  0
LINE
  8
0
 10
-9.6264
 20
-53
 11
-9.6264
 21
-56.055
  0
LINE
  8
0
 10
-9.6264
 20
-56.055
 11
-12.3736
 21
-56.055
  0
LINE
  8
0
 10
-12.3736
 20
-56.055
 11
-12.3736
 21
-53
  0
LINE
  8
0
 10
-12.3736
 20
-53
 11
-15.3407
 21
-53
  0
LINE
  8
0
 10
-15.3407
 20
-53
 11
-15.3407
 21
-56.055
  0
LINE
  8
0
 10
-15.3407
 20
-56.055
 11
-18.0878
 21
-56.055
  0
LINE
  8
0
 10
-18.0878
 20
-56.055
 11
-18.0878
 21
-53
  0
LINE
  8
0
 10
-18.0878
 20
-53
 11
-18.1
 21
-53
  0
LINE
  8
0
 10
-18.1
 20
-53
 11
-18.1
 21
-75.4286
  0
LINE
  8
0
 10
-18.1
 20
-75.4286
 11
-21
 21
-75.4286
  0
LINE
  8
0
 10
-21
 20
-75.4286
 11
-21
 21
-97.8571
  0
LINE
  8
0
 10
-21
 20
-97.8571
 11
-18.1
 21
-97.8571
  0
LINE
  8
0
 10
-18.1
 20
-97.8571
 11
-18.1
 21
-120.286
  0
LINE
  8
0
 10
-18.1
 20
-120.286
 11
-21
 21
-120.286
  0
LINE
  8
0
 10
-21
 20
-120.286
 11
-21
 21
-142.714
  0
LINE
  8
0
 10
-21
 20
-142.714
 11
-18.1
 21
-142.714
  0
LINE
  8
0
 10
-18.1
 20
-142.714
 11
-18.1
 21
-165.143
  0
LINE
  8
0
 10
-18.1
 20
-165.143
 11
-21
 21
-165.143
  0
LINE
  8
0
 10
-21
 20
-165.143
 11
-21
 21
-187.571
  0
LINE
  8
0
 10
-21
 20
-187.571
 11
-18.1
 21
-187.571
  0
LINE
  8
0
 10
-18.1
 20
-187.571
 11
-18.1
 21
-210
  0
LINE
  8
0
 10
-18.1
 20
-210
 11
-3.95499
 21
-210
  0
LINE
  8
0
 10
-3.95499
 20
-210
 11
-3.95499
 21
-209.955
  0
LINE
  8
0
 10
-12.3736
 20
-209.955
 11
-12.3736
 21
-206.9
  0
LINE
  8
0
 10
-12.3736
 20
-206.9
 11
-9.62642
 21
-206.9
  0
LINE
  8
0
 10
-9.62642
 20
-206.9
 11
-9.62642
 21
-209.955
  0
LINE
  8
0
 10
-9.62642
 20
-209.955
 11
-12.3736
 21
-209.955
  0
LINE
  8
0
 10
-18.0878
 20
-209.955
 11
-18.0878
 21
-206.9
  0
LINE
  8
0
 10
-18.0878
 20
-206.9
 11
-15.3407
 21
-206.9
  0
LINE
  8
0
 10
-15.3407
 20
-206.9
 11
-15.3407
 21
-209.955
  0
LINE
  8
0
 10
-15.3407
 20
-209.955
 11
-18.0878
 21
-209.955
  0
ENDSEC
  0
SECTION
  2
OBJECTS
  0
DICTIONARY
  0
ENDSEC
  0
EOF
