<?xml version="1.0" encoding="UTF-8" standalone="no"?>
<svg
   xmlns:dc="http://purl.org/dc/elements/1.1/"
   xmlns:cc="http://creativecommons.org/ns#"
   xmlns:rdf="http://www.w3.org/1999/02/22-rdf-syntax-ns#"
   xmlns:svg="http://www.w3.org/2000/svg"
   xmlns="http://www.w3.org/2000/svg"
   xmlns:sodipodi="http://sodipodi.sourceforge.net/DTD/sodipodi-0.dtd"
   xmlns:inkscape="http://www.inkscape.org/namespaces/inkscape"
   width="600mm"
   height="300mm"
   version="1.1"
   id="svg636"
   sodipodi:docname="andi_flyerhalter_3mm_A5.svg"
   inkscape:version="0.92.2 5c3e80d, 2017-08-06">
  <metadata
     id="metadata640">
    <rdf:RDF>
      <cc:Work
         rdf:about="">
        <dc:format>image/svg+xml</dc:format>
        <dc:type
           rdf:resource="http://purl.org/dc/dcmitype/StillImage" />
        <dc:title></dc:title>
      </cc:Work>
    </rdf:RDF>
  </metadata>
  <sodipodi:namedview
     pagecolor="#ffffff"
     bordercolor="#666666"
     borderopacity="1"
     objecttolerance="10"
     gridtolerance="10"
     guidetolerance="10"
     inkscape:pageopacity="0"
     inkscape:pageshadow="2"
     inkscape:window-width="1280"
     inkscape:window-height="719"
     id="namedview638"
     showgrid="false"
     inkscape:document-units="mm"
     units="mm"
     inkscape:zoom="0.34244495"
     inkscape:cx="740.00698"
     inkscape:cy="575.4309"
     inkscape:window-x="0"
     inkscape:window-y="1"
     inkscape:window-maximized="1"
     inkscape:current-layer="g634" />
  <desc
     id="desc2">/Users/andy/Dropbox/MyProjects/erfindergarden/github/flyer-halter/2D/andi_flyerhalter_3mm_A5.dxf - scale = 1.000000, origin = (0.000000, 0.000000), method = manual</desc>
  <defs
     id="defs14">
    <marker
       id="DistanceX"
       orient="auto"
       refX="0"
       refY="0"
       style="overflow:visible">
      <path
         d="M 3,-3 -3,3 M 0,-5 V 5"
         style="stroke:#000000;stroke-width:0.5"
         id="path4"
         inkscape:connector-curvature="0" />
    </marker>
    <pattern
       height="8"
       id="Hatch"
       patternUnits="userSpaceOnUse"
       width="8"
       x="0"
       y="0">
      <path
         d="M8 4 l-4,4"
         linecap="square"
         stroke="#000000"
         stroke-width="0.25"
         id="path7" />
      <path
         d="M6 2 l-4,4"
         linecap="square"
         stroke="#000000"
         stroke-width="0.25"
         id="path9" />
      <path
         d="M4 0 l-4,4"
         linecap="square"
         stroke="#000000"
         stroke-width="0.25"
         id="path11" />
    </pattern>
  </defs>
  <g
     inkscape:groupmode="layer"
     inkscape:label="0"
     id="g634"
     transform="translate(0,11.338583)">
    <path
       id="path532"
       style="fill:none;stroke:#000000"
       d="m 1324.6766,684.80961 h 44.9386 v 11.33858 h 45.7701 v -11.33858 h 44.9385 v 11.33858 h 45.7701 v -11.33858 h 44.9386 v 11.33858 h 45.5621 V 611.1708 h -11.5464 v -84.35338 h 11.5464 v -85.18526 h -11.5464 V 357.2784 h 11.5464 v -85.18564 h -11.5464 v -84.3515 h 11.5464 v -84.9789 h -45.5621 v 11.54646 h -44.9386 v -11.54646 h -45.7701 v 11.54646 h -44.9385 v -11.54646 h -45.7701 v 11.54646 h -44.9386 V 102.76236 H 802.89384 V 696.14819 H 1324.6766 Z M 562.5794,351.1257 l 44.66532,7.87578 -2.00504,11.37071 -44.66532,-7.8754 z m 31.5685,82.1503 -44.66532,-7.87578 2.00504,-11.37108 44.66532,7.87577 z m -76.23383,-90.02608 -2.00504,11.37109 -44.66532,-7.87578 2.00504,-11.37109 z m -57.76176,66.39912 2.00504,-11.37109 44.66494,7.87578 -2.00466,11.37071 z m -31.56888,-82.15068 -2.00504,11.37109 -44.66343,-7.87578 0.15874,-0.90368 -0.37418,-0.0658 1.87465,-10.63443 11.3726,2.00503 -0.0302,0.16744 z m -50.6332,23.79515 1.87465,-10.63445 11.3726,2.00466 -1.87465,10.63483 z m -3.74929,21.26929 1.87465,-10.63483 11.36881,2.00504 -1.87464,10.63446 z m -1.37575,9.96359 44.66646,7.87578 -2.00315,11.37109 -45.04063,-7.94154 1.87842,-10.63446 0.3704,0.0658 z m 360.58355,-217.87804 2.4011,4.36535 1.8346,4.6337 1.2393,4.83024 0.6248,4.94362 V 611.7109 l -0.6248,4.94438 -1.2393,4.82721 -1.8346,4.6337 -2.4011,4.36724 -2.9291,4.03163 -3.4118,3.63326 -3.84,3.17669 -4.2078,2.67024 -4.5093,2.12182 -4.7399,1.54016 -4.8953,0.93392 -4.9738,0.31295 h -204.0945 l -4.97386,-0.31295 -4.89524,-0.93392 -4.30413,-1.39843 v 49.88939 h 45.56221 v -11.33858 h 44.93858 v 11.33858 h 45.77008 v -11.33858 h 44.93858 v 11.33858 h 45.77008 v -11.33858 h 44.9386 v 11.33858 h 45.5622 V 611.1708 h -11.5464 v -84.35338 h 11.5464 v -85.18526 h -11.5464 V 357.2784 h 11.5464 v -85.18564 h -11.5464 v -84.3515 h 11.5464 v -84.9789 h -45.5622 v 11.54646 h -44.9386 v -11.54646 h -45.77008 v 11.54646 H 617.90488 V 102.76236 H 572.1348 v 11.54646 h -44.93858 v -11.54646 h -45.56221 v 45.50174 l -24.8383,-11.69008 -33.17858,-10.77922 -34.26784,-6.5348 -34.81701,-2.19213 v 555.5904 l 34.81701,-2.19046 34.26784,-6.53695 33.17858,-10.78047 31.56548,-14.85354 29.45499,-18.69279 26.88,-22.23685 23.88133,-25.43093 20.50507,-28.22324 16.80642,-30.57071 12.84246,-32.4359 8.67553,-33.78974 0.96113,-7.60667 10.4451,1.84176 2.00504,-11.37109 44.66528,7.87578 9.0868,-51.53272 -44.66534,-7.87578 2.00504,-11.37109 -21.97379,-4.04711 -2.52926,-20.02016 -8.67553,-33.79087 -12.84246,-32.4359 -16.80642,-30.56882 -20.50545,-28.22552 -23.88095,-25.42866 -26.88,-22.23874 -29.45499,-18.69354 -5.9622,-2.80441 3.53915,-1.14898 4.89524,-0.93354 4.97386,-0.3137 h 204.0945 l 4.9738,0.3137 4.8953,0.93354 4.7399,1.53827 4.5093,2.1241 4.2078,2.66834 3.84,3.17859 3.4118,3.63212 z m -36.8184,210.0206 z m -363.94909,78.13587 -1.87464,10.63446 -11.3726,-2.00504 1.87842,-10.63446 z m -3.74929,21.26891 -1.87464,10.63484 -11.3726,-2.00504 1.87464,-10.63484 z m 5.12126,-31.23288 -44.66267,-7.87578 2.00314,-11.37109 45.03686,7.94155 -1.87465,10.63446 -0.37039,-0.0654 z m -55.75559,55.02803 2.00693,-11.37108 44.66268,7.87578 -0.15874,0.90406 0.37417,0.0654 -1.87842,10.63445 -11.36882,-2.00504 0.0302,-0.16743 z m -33.57354,-70.77921 -44.66646,-7.87578 2.00693,-11.37109 44.66646,7.87578 z m -11.09292,62.90343 -44.66267,-7.87578 2.00315,-11.3707 44.66645,7.8754 z m -120.89574,-97.90185 44.66267,7.87577 -2.00315,11.37109 -44.66645,-7.87578 z m -11.09292,62.90381 44.66646,7.87578 -2.00693,11.3707 -44.66646,-7.8754 z M 10.25135,450.6983 Z m 272.97258,-289.26255 -33.17669,10.77921 -31.56662,14.85732 -29.45385,18.68977 -26.88,22.23874 -23.88284,25.42866 -20.50394,28.22551 -16.80756,30.56882 -12.84283,32.43704 -8.67402,33.78973 -0.96378,7.60706 -10.44283,-1.84214 -2.00693,11.37108 -44.66268,-7.8754 -9.08976,51.53235 44.66646,7.87578 -2.00315,11.37108 21.97417,4.04712 2.5285,20.02016 8.67402,33.78973 12.84283,32.43629 16.80756,30.5707 20.50394,28.22325 23.88284,25.43055 26.88,22.23685 29.45385,18.69297 31.56662,14.8537 33.17669,10.78027 34.26898,6.53688 34.81701,2.19054 V 152.70882 l -34.81701,2.19213 z"
       inkscape:connector-curvature="0"
       sodipodi:nodetypes="cccccccccccccccccccccccccccccccccccccccccccccccccccccccccccccccccccccccccccccccccccccccccccccccccccccccccccccccccccccccccccccccccccccccccccccccccccccccccccccccccccccccccccccccccccccccccccccccccccccccccccccccccccccccccccccccccccccccccccccccccccccccccccccccccccccccccccccccccccccc" />
    <path
       id="path719"
       style="fill:none;stroke:#000000"
       d="m 88.247694,57.700491 v 10.9608 h 84.769096 v -10.9607 h 84.7706 v 10.9607 h 84.7673 v -10.9607 h 84.771 v 10.9607 h 84.7672 v -10.9607 l 73.0545,-0.046 v -10.3827 h 11.5465 v 0 -32.8118 h -11.5465 V 4.2391911 l -73.0545,-1e-4 v -11.1684 h -84.7672 v 11.1684 h -84.771 v -11.1684 h -84.7673 v 11.1684 h -84.7706 v -11.1684 H 88.247694 v 11.1684 h -73.2231 V 14.459991 H 3.4780943 v 11.2144 H 15.024594 v 10.3832 H 3.4780943 v 11.2142 H 15.024594 v 10.3827 z m 496.899696,-21.6429 v -10.3831 l 11.5465,5.1915 z"
       inkscape:connector-curvature="0"
       sodipodi:nodetypes="cccccccccccccccccccccccccccccccccccccccccccccc" />
  </g>
</svg>
