  0
SECTION
  2
HEADER
  9
$ACADVER
  1
AC1014
  9
$HANDSEED
  5
FFFF
  9
$MEASUREMENT
 70
     1
  0
ENDSEC
  0
SECTION
  2
TABLES
  0
TABLE
  2
VPORT
  5
8
330
0
100
AcDbSymbolTable
 70
     4
  0
VPORT
  5
2E
330
8
100
AcDbSymbolTableRecord
100
AcDbViewportTableRecord
  2
*ACTIVE
 70
     0
 10
0.0
 20
0.0
 11
1.0
 21
1.0
 12
210.0
 22
148.5
 13
0.0
 23
0.0
 14
10.0
 24
10.0
 15
10.0
 25
10.0
 16
0.0
 26
0.0
 36
1.0
 17
0.0
 27
0.0
 37
0.0
 40
341.0
 41
1.24
 42
50.0
 43
0.0
 44
0.0
 50
0.0
 51
0.0
 71
     0
 72
   100
 73
     1
 74
     3
 75
     0
 76
     0
 77
     0
 78
     0
  0
ENDTAB
  0
TABLE
  2
LTYPE
  5
5
330
0
100
AcDbSymbolTable
 70
     1
  0
LTYPE
  5
14
330
5
100
AcDbSymbolTableRecord
100
AcDbLinetypeTableRecord
  2
BYBLOCK
 70
     0
  3

 72
    65
 73
     0
 40
0.0
  0
LTYPE
  5
15
330
5
100
AcDbSymbolTableRecord
100
AcDbLinetypeTableRecord
  2
BYLAYER
 70
     0
  3

 72
    65
 73
     0
 40
0.0
  0
LTYPE
  5
16
330
5
100
AcDbSymbolTableRecord
100
AcDbLinetypeTableRecord
  2
CONTINUOUS
 70
     0
  3
Solid line
 72
    65
 73
     0
 40
0.0
  0
ENDTAB
  0
TABLE
  2
LAYER
  5
2
100
AcDbSymbolTable
 70
1
  0
LAYER
  5
50
100
AcDbSymbolTableRecord
100
AcDbLayerTableRecord
  2
0
 70
0
  6
CONTINUOUS
  0
ENDTAB
  0
TABLE
  2
STYLE
  5
3
330
0
100
AcDbSymbolTable
 70
     1
  0
STYLE
  5
11
330
3
100
AcDbSymbolTableRecord
100
AcDbTextStyleTableRecord
  2
STANDARD
 70
     0
 40
0.0
 41
1.0
 50
0.0
 71
     0
 42
2.5
  3
txt
  4

  0
ENDTAB
  0
TABLE
  2
VIEW
  5
6
330
0
100
AcDbSymbolTable
 70
     0
  0
ENDTAB
  0
TABLE
  2
UCS
  5
7
330
0
100
AcDbSymbolTable
 70
     0
  0
ENDTAB
  0
TABLE
  2
APPID
  5
9
330
0
100
AcDbSymbolTable
 70
     2
  0
APPID
  5
12
330
9
100
AcDbSymbolTableRecord
100
AcDbRegAppTableRecord
  2
ACAD
 70
     0
  0
ENDTAB
  0
TABLE
  2
DIMSTYLE
  5
A
330
0
100
AcDbSymbolTable
 70
     1
  0
DIMSTYLE
105
27
330
A
100
AcDbSymbolTableRecord
100
AcDbDimStyleTableRecord
  2
ISO-25
 70
     0
  3

  4

  5

  6

  7

 40
1.0
 41
2.5
 42
0.625
 43
3.75
 44
1.25
 45
0.0
 46
0.0
 47
0.0
 48
0.0
140
2.5
141
2.5
142
0.0
143
0.03937007874016
144
1.0
145
0.0
146
1.0
147
0.625
 71
     0
 72
     0
 73
     0
 74
     0
 75
     0
 76
     0
 77
     1
 78
     8
170
     0
171
     3
172
     1
173
     0
174
     0
175
     0
176
     0
177
     0
178
     0
270
     2
271
     2
272
     2
273
     2
274
     3
340
11
275
     0
280
     0
281
     0
282
     0
283
     0
284
     8
285
     0
286
     0
287
     3
288
     0
  0
ENDTAB
  0
TABLE
  2
BLOCK_RECORD
  5
1
330
0
100
AcDbSymbolTable
 70
     1
  0
BLOCK_RECORD
  5
1F
330
1
100
AcDbSymbolTableRecord
100
AcDbBlockTableRecord
  2
*MODEL_SPACE
  0
BLOCK_RECORD
  5
1B
330
1
100
AcDbSymbolTableRecord
100
AcDbBlockTableRecord
  2
*PAPER_SPACE
  0
ENDTAB
  0
ENDSEC
  0
SECTION
  2
BLOCKS
  0
BLOCK
  5
20
330
1F
100
AcDbEntity
  8
0
100
AcDbBlockBegin
  2
*MODEL_SPACE
 70
     0
 10
0.0
 20
0.0
 30
0.0
  3
*MODEL_SPACE
  1

  0
ENDBLK
  5
21
330
1F
100
AcDbEntity
  8
0
100
AcDbBlockEnd
  0
BLOCK
  5
1C
330
1B
100
AcDbEntity
 67
     1
  8
0
100
AcDbBlockBegin
  2
*PAPER_SPACE
  1

  0
ENDBLK
  5
1D
330
1B
100
AcDbEntity
 67
     1
  8
0
100
AcDbBlockEnd
  0
ENDSEC
  0
SECTION
  2
ENTITIES
  0
LWPOLYLINE
  5
100
100
AcDbEntity
  8
0
 62
7
100
AcDbPolyline
 90
40
 70
1
 10
373.853174
 20
123.531510
 30
0.0
 10
386.535845
 20
123.531510
 30
0.0
 10
386.535845
 20
120.331511
 30
0.0
 10
399.453185
 20
120.331511
 30
0.0
 10
399.453185
 20
123.531510
 30
0.0
 10
412.135828
 20
123.531510
 30
0.0
 10
412.135828
 20
120.331511
 30
0.0
 10
425.053167
 20
120.331511
 30
0.0
 10
425.053167
 20
123.531510
 30
0.0
 10
437.735839
 20
123.531510
 30
0.0
 10
437.735839
 20
120.331511
 30
0.0
 10
450.594476
 20
120.331511
 30
0.0
 10
450.594476
 20
144.314019
 30
0.0
 10
447.335825
 20
144.314019
 30
0.0
 10
447.335825
 20
168.120417
 30
0.0
 10
450.594476
 20
168.120417
 30
0.0
 10
450.594476
 20
192.161590
 30
0.0
 10
447.335825
 20
192.161590
 30
0.0
 10
447.335825
 20
215.968096
 30
0.0
 10
450.594476
 20
215.968096
 30
0.0
 10
450.594476
 20
240.009377
 30
0.0
 10
447.335825
 20
240.009377
 30
0.0
 10
447.335825
 20
263.815244
 30
0.0
 10
450.594476
 20
263.815244
 30
0.0
 10
450.594476
 20
287.798178
 30
0.0
 10
437.735839
 20
287.798178
 30
0.0
 10
437.735839
 20
284.539511
 30
0.0
 10
425.053167
 20
284.539511
 30
0.0
 10
425.053167
 20
287.798178
 30
0.0
 10
412.135828
 20
287.798178
 30
0.0
 10
412.135828
 20
284.539511
 30
0.0
 10
399.453185
 20
284.539511
 30
0.0
 10
399.453185
 20
287.798178
 30
0.0
 10
386.535845
 20
287.798178
 30
0.0
 10
386.535845
 20
284.539511
 30
0.0
 10
373.853174
 20
284.539511
 30
0.0
 10
373.853174
 20
287.798178
 30
0.0
 10
226.594484
 20
287.798178
 30
0.0
 10
226.594484
 20
120.331511
 30
0.0
 10
373.853174
 20
120.331511
 30
0.0
  0
LWPOLYLINE
  5
101
100
AcDbEntity
  8
0
 62
7
100
AcDbPolyline
 90
4
 70
1
 10
158.772408
 20
217.704525
 30
0.0
 10
171.377954
 20
215.481804
 30
0.0
 10
170.812087
 20
212.272737
 30
0.0
 10
158.206542
 20
214.495350
 30
0.0
  0
LWPOLYLINE
  5
102
100
AcDbEntity
  8
0
 62
7
100
AcDbPolyline
 90
4
 70
1
 10
167.681741
 20
194.519884
 30
0.0
 10
155.076195
 20
196.742604
 30
0.0
 10
155.642062
 20
199.951776
 30
0.0
 10
168.247608
 20
197.729059
 30
0.0
  0
LWPOLYLINE
  5
103
100
AcDbEntity
  8
0
 62
7
100
AcDbPolyline
 90
4
 70
1
 10
146.166860
 20
219.927245
 30
0.0
 10
145.600993
 20
216.718070
 30
0.0
 10
132.995447
 20
218.940791
 30
0.0
 10
133.561314
 20
222.149965
 30
0.0
  0
LWPOLYLINE
  5
104
100
AcDbEntity
  8
0
 62
7
100
AcDbPolyline
 90
4
 70
1
 10
129.865207
 20
201.187938
 30
0.0
 10
130.431074
 20
204.397112
 30
0.0
 10
143.036513
 20
202.174392
 30
0.0
 10
142.470753
 20
198.965325
 30
0.0
  0
LWPOLYLINE
  5
105
100
AcDbEntity
  8
0
 62
7
100
AcDbPolyline
 90
8
 70
1
 10
120.955768
 20
224.372685
 30
0.0
 10
120.389901
 20
221.163511
 30
0.0
 10
107.784889
 20
223.386231
 30
0.0
 10
107.829689
 20
223.641269
 30
0.0
 10
107.724087
 20
223.659840
 30
0.0
 10
108.253155
 20
226.661112
 30
0.0
 10
111.462755
 20
226.095248
 30
0.0
 10
111.454232
 20
226.047993
 30
0.0
  0
LWPOLYLINE
  5
106
100
AcDbEntity
  8
0
 62
7
100
AcDbPolyline
 90
4
 70
1
 10
106.665954
 20
217.657165
 30
0.0
 10
107.195022
 20
220.658443
 30
0.0
 10
110.404622
 20
220.092683
 30
0.0
 10
109.875554
 20
217.091298
 30
0.0
  0
LWPOLYLINE
  5
107
100
AcDbEntity
  8
0
 62
7
100
AcDbPolyline
 90
4
 70
1
 10
105.607821
 20
211.654499
 30
0.0
 10
106.136889
 20
214.655884
 30
0.0
 10
109.345420
 20
214.090017
 30
0.0
 10
108.816354
 20
211.088736
 30
0.0
  0
LWPOLYLINE
  5
108
100
AcDbEntity
  8
0
 62
7
100
AcDbPolyline
 90
6
 70
1
 10
105.219554
 20
208.842552
 30
0.0
 10
117.825421
 20
206.619832
 30
0.0
 10
117.260088
 20
203.410658
 30
0.0
 10
104.548621
 20
205.651937
 30
0.0
 10
105.078753
 20
208.653218
 30
0.0
 10
105.183288
 20
208.634647
 30
0.0
  0
LWPOLYLINE
  5
109
100
AcDbEntity
  8
0
 62
7
100
AcDbPolyline
 90
107
 70
1
 10
206.984244
 20
270.332577
 30
0.0
 10
207.661888
 20
269.100578
 30
0.0
 10
208.179653
 20
267.792845
 30
0.0
 10
208.529411
 20
266.429644
 30
0.0
 10
208.705744
 20
265.034444
 30
0.0
 10
208.705744
 20
144.161590
 30
0.0
 10
208.529411
 20
142.766176
 30
0.0
 10
208.179653
 20
141.403831
 30
0.0
 10
207.661888
 20
140.096097
 30
0.0
 10
206.984244
 20
138.863565
 30
0.0
 10
206.157587
 20
137.725750
 30
0.0
 10
205.194702
 20
136.700363
 30
0.0
 10
204.110968
 20
135.803830
 30
0.0
 10
202.923434
 20
135.050229
 30
0.0
 10
201.650809
 20
134.451405
 30
0.0
 10
200.313104
 20
134.016737
 30
0.0
 10
198.931541
 20
133.753164
 30
0.0
 10
197.527824
 20
133.664843
 30
0.0
 10
139.927821
 20
133.664843
 30
0.0
 10
138.524087
 20
133.753164
 30
0.0
 10
137.142542
 20
134.016737
 30
0.0
 10
135.927821
 20
134.411405
 30
0.0
 10
135.927821
 20
120.331511
 30
0.0
 10
148.786489
 20
120.331511
 30
0.0
 10
148.786489
 20
123.531510
 30
0.0
 10
161.469155
 20
123.531510
 30
0.0
 10
161.469155
 20
120.331511
 30
0.0
 10
174.386488
 20
120.331511
 30
0.0
 10
174.386488
 20
123.531510
 30
0.0
 10
187.069154
 20
123.531510
 30
0.0
 10
187.069154
 20
120.331511
 30
0.0
 10
199.986488
 20
120.331511
 30
0.0
 10
199.986488
 20
123.531510
 30
0.0
 10
212.669160
 20
123.531510
 30
0.0
 10
212.669160
 20
120.331511
 30
0.0
 10
225.527825
 20
120.331511
 30
0.0
 10
225.527825
 20
144.314019
 30
0.0
 10
222.269174
 20
144.314019
 30
0.0
 10
222.269174
 20
168.120417
 30
0.0
 10
225.527825
 20
168.120417
 30
0.0
 10
225.527825
 20
192.161590
 30
0.0
 10
222.269174
 20
192.161590
 30
0.0
 10
222.269174
 20
215.968096
 30
0.0
 10
225.527825
 20
215.968096
 30
0.0
 10
225.527825
 20
240.009377
 30
0.0
 10
222.269174
 20
240.009377
 30
0.0
 10
222.269174
 20
263.815244
 30
0.0
 10
225.527825
 20
263.815244
 30
0.0
 10
225.527825
 20
287.798178
 30
0.0
 10
212.669160
 20
287.798178
 30
0.0
 10
212.669160
 20
284.539511
 30
0.0
 10
199.986488
 20
284.539511
 30
0.0
 10
199.986488
 20
287.798178
 30
0.0
 10
187.069154
 20
287.798178
 30
0.0
 10
187.069154
 20
284.539511
 30
0.0
 10
174.386488
 20
284.539511
 30
0.0
 10
174.386488
 20
287.798178
 30
0.0
 10
161.469155
 20
287.798178
 30
0.0
 10
161.469155
 20
284.539511
 30
0.0
 10
148.786489
 20
284.539511
 30
0.0
 10
148.786489
 20
287.798178
 30
0.0
 10
135.927821
 20
287.798178
 30
0.0
 10
135.927821
 20
274.956576
 30
0.0
 10
128.917900
 20
278.255776
 30
0.0
 10
119.554168
 20
281.297912
 30
0.0
 10
109.883022
 20
283.142178
 30
0.0
 10
100.056888
 20
283.760845
 30
0.0
 10
100.056888
 20
126.960888
 30
0.0
 10
109.883022
 20
127.579085
 30
0.0
 10
119.554168
 20
129.423957
 30
0.0
 10
128.917900
 20
132.466445
 30
0.0
 10
137.826380
 20
136.658444
 30
0.0
 10
146.139233
 20
141.933965
 30
0.0
 10
153.725366
 20
148.209698
 30
0.0
 10
160.465208
 20
155.386872
 30
0.0
 10
166.252195
 20
163.352098
 30
0.0
 10
170.995340
 20
171.979831
 30
0.0
 10
174.619768
 20
181.133963
 30
0.0
 10
177.068195
 20
190.670179
 30
0.0
 10
177.339447
 20
192.816950
 30
0.0
 10
180.287287
 20
192.297164
 30
0.0
 10
180.853153
 20
195.506339
 30
0.0
 10
193.458688
 20
193.283618
 30
0.0
 10
196.023185
 20
207.827297
 30
0.0
 10
183.417633
 20
210.050017
 30
0.0
 10
183.983500
 20
213.259192
 30
0.0
 10
177.782008
 20
214.401376
 30
0.0
 10
177.068195
 20
220.051510
 30
0.0
 10
174.619768
 20
229.588044
 30
0.0
 10
170.995340
 20
238.742176
 30
0.0
 10
166.252195
 20
247.369376
 30
0.0
 10
160.465101
 20
255.335245
 30
0.0
 10
153.725366
 20
262.511778
 30
0.0
 10
146.139233
 20
268.788045
 30
0.0
 10
137.826380
 20
274.063777
 30
0.0
 10
136.143715
 20
274.855244
 30
0.0
 10
137.142542
 20
275.179512
 30
0.0
 10
138.524087
 20
275.442978
 30
0.0
 10
139.927821
 20
275.531511
 30
0.0
 10
197.527824
 20
275.531511
 30
0.0
 10
198.931541
 20
275.442978
 30
0.0
 10
200.313104
 20
275.179512
 30
0.0
 10
201.650809
 20
274.745378
 30
0.0
 10
202.923434
 20
274.145910
 30
0.0
 10
204.110968
 20
273.392845
 30
0.0
 10
205.194702
 20
272.495776
 30
0.0
 10
206.157587
 20
271.470711
 30
0.0
  0
LWPOLYLINE
  5
10a
100
AcDbEntity
  8
0
 62
7
100
AcDbPolyline
 90
1
 70
1
 10
196.593274
 20
211.060096
 30
0.0
  0
LWPOLYLINE
  5
10b
100
AcDbEntity
  8
0
 62
7
100
AcDbPolyline
 90
4
 70
1
 10
93.878753
 20
189.008417
 30
0.0
 10
93.349688
 20
186.007136
 30
0.0
 10
90.140087
 20
186.573003
 30
0.0
 10
90.670219
 20
189.574284
 30
0.0
  0
LWPOLYLINE
  5
10c
100
AcDbEntity
  8
0
 62
7
100
AcDbPolyline
 90
4
 70
1
 10
92.820620
 20
183.005858
 30
0.0
 10
92.291555
 20
180.004470
 30
0.0
 10
89.081954
 20
180.570337
 30
0.0
 10
89.611019
 20
183.571725
 30
0.0
  0
LWPOLYLINE
  5
10d
100
AcDbEntity
  8
0
 62
7
100
AcDbPolyline
 90
6
 70
1
 10
94.265953
 20
191.820471
 30
0.0
 10
81.661155
 20
194.043191
 30
0.0
 10
82.226486
 20
197.252366
 30
0.0
 10
94.936889
 20
195.011084
 30
0.0
 10
94.407821
 20
192.009803
 30
0.0
 10
94.303288
 20
192.028260
 30
0.0
  0
LWPOLYLINE
  5
10e
100
AcDbEntity
  8
0
 62
7
100
AcDbPolyline
 90
8
 70
1
 10
78.530487
 20
176.290338
 30
0.0
 10
79.096887
 20
179.499510
 30
0.0
 10
91.701688
 20
177.276790
 30
0.0
 10
91.656888
 20
177.021644
 30
0.0
 10
91.762487
 20
177.003186
 30
0.0
 10
91.232355
 20
174.001908
 30
0.0
 10
88.023821
 20
174.567775
 30
0.0
 10
88.032344
 20
174.615028
 30
0.0
  0
LWPOLYLINE
  5
10f
100
AcDbEntity
  8
0
 62
7
100
AcDbPolyline
 90
4
 70
1
 10
69.055288
 20
196.265804
 30
0.0
 10
56.449420
 20
198.488524
 30
0.0
 10
57.015820
 20
201.697699
 30
0.0
 10
69.621688
 20
199.474978
 30
0.0
  0
LWPOLYLINE
  5
110
100
AcDbEntity
  8
0
 62
7
100
AcDbPolyline
 90
4
 70
1
 10
65.924619
 20
178.513058
 30
0.0
 10
53.319821
 20
180.735778
 30
0.0
 10
53.885155
 20
183.944843
 30
0.0
 10
66.491019
 20
181.722230
 30
0.0
  0
LWPOLYLINE
  5
111
100
AcDbEntity
  8
0
 62
7
100
AcDbPolyline
 90
4
 70
1
 10
31.805155
 20
206.143136
 30
0.0
 10
44.409953
 20
203.920419
 30
0.0
 10
43.844619
 20
200.711244
 30
0.0
 10
31.238754
 20
202.933965
 30
0.0
  0
LWPOLYLINE
  5
112
100
AcDbEntity
  8
0
 62
7
100
AcDbPolyline
 90
4
 70
1
 10
28.674486
 20
188.390283
 30
0.0
 10
41.280354
 20
186.167563
 30
0.0
 10
40.713954
 20
182.958499
 30
0.0
 10
28.108086
 20
185.181112
 30
0.0
  0
LWPOLYLINE
  5
113
100
AcDbEntity
  8
0
 62
7
100
AcDbPolyline
 90
1
 70
1
 10
2.893159
 20
189.602924
 30
0.0
  0
LWPOLYLINE
  5
114
100
AcDbEntity
  8
0
 62
7
100
AcDbPolyline
 90
32
 70
1
 10
79.932087
 20
271.239244
 30
0.0
 10
70.568888
 20
268.197111
 30
0.0
 10
61.660086
 20
264.004045
 30
0.0
 10
53.347555
 20
258.729377
 30
0.0
 10
45.761422
 20
252.453110
 30
0.0
 10
39.021154
 20
245.276577
 30
0.0
 10
33.234486
 20
237.310711
 30
0.0
 10
28.491019
 20
228.683511
 30
0.0
 10
24.866487
 20
219.529057
 30
0.0
 10
22.418486
 20
209.992845
 30
0.0
 10
22.146486
 20
207.845963
 30
0.0
 10
19.199287
 20
208.365856
 30
0.0
 10
18.632887
 20
205.156685
 30
0.0
 10
6.028086
 20
207.379298
 30
0.0
 10
3.462754
 20
192.835723
 30
0.0
 10
16.068621
 20
190.613003
 30
0.0
 10
15.503288
 20
187.403832
 30
0.0
 10
21.704887
 20
186.261644
 30
0.0
 10
22.418486
 20
180.611510
 30
0.0
 10
24.866487
 20
171.075298
 30
0.0
 10
28.491019
 20
161.921056
 30
0.0
 10
33.234486
 20
153.293325
 30
0.0
 10
39.021154
 20
145.328097
 30
0.0
 10
45.761422
 20
138.151030
 30
0.0
 10
53.347555
 20
131.875297
 30
0.0
 10
61.660086
 20
126.599726
 30
0.0
 10
70.568888
 20
122.407681
 30
0.0
 10
79.932087
 20
119.365250
 30
0.0
 10
89.603555
 20
117.520397
 30
0.0
 10
99.429689
 20
116.902178
 30
0.0
 10
99.429689
 20
273.702177
 30
0.0
 10
89.603555
 20
273.083510
 30
0.0
  0
LWPOLYLINE
  5
115
100
AcDbEntity
  8
0
 62
7
100
AcDbPolyline
 90
41
 70
1
 10
24.905460
 20
300.515639
 30
0.0
 10
24.905460
 20
297.422258
 30
0.0
 10
48.829183
 20
297.422258
 30
0.0
 10
48.829183
 20
300.515611
 30
0.0
 10
72.753330
 20
300.515611
 30
0.0
 10
72.753330
 20
297.422258
 30
0.0
 10
96.676546
 20
297.422258
 30
0.0
 10
96.676546
 20
300.515611
 30
0.0
 10
120.600806
 20
300.515611
 30
0.0
 10
120.600806
 20
297.422258
 30
0.0
 10
144.523993
 20
297.422258
 30
0.0
 10
144.523993
 20
300.515611
 30
0.0
 10
165.141597
 20
300.528593
 30
0.0
 10
165.141597
 20
303.458822
 30
0.0
 10
168.400276
 20
303.458822
 30
0.0
 10
168.400276
 20
303.458822
 30
0.0
 10
168.400276
 20
312.719041
 30
0.0
 10
165.141597
 20
312.719041
 30
0.0
 10
165.141597
 20
315.603606
 30
0.0
 10
144.523993
 20
315.603634
 30
0.0
 10
144.523993
 20
318.755605
 30
0.0
 10
120.600806
 20
318.755605
 30
0.0
 10
120.600806
 20
315.603634
 30
0.0
 10
96.676546
 20
315.603634
 30
0.0
 10
96.676546
 20
318.755605
 30
0.0
 10
72.753330
 20
318.755605
 30
0.0
 10
72.753330
 20
315.603634
 30
0.0
 10
48.829183
 20
315.603634
 30
0.0
 10
48.829183
 20
318.755605
 30
0.0
 10
24.905460
 20
318.755605
 30
0.0
 10
24.905460
 20
315.603634
 30
0.0
 10
4.240274
 20
315.603634
 30
0.0
 10
4.240274
 20
312.719069
 30
0.0
 10
0.981596
 20
312.719069
 30
0.0
 10
0.981596
 20
309.554116
 30
0.0
 10
4.240274
 20
309.554116
 30
0.0
 10
4.240274
 20
306.623746
 30
0.0
 10
0.981596
 20
306.623746
 30
0.0
 10
0.981596
 20
303.458850
 30
0.0
 10
4.240274
 20
303.458850
 30
0.0
 10
4.240274
 20
300.528621
 30
0.0
  0
LWPOLYLINE
  5
116
100
AcDbEntity
  8
0
 62
7
100
AcDbPolyline
 90
3
 70
1
 10
165.141597
 20
306.623746
 30
0.0
 10
165.141597
 20
309.554088
 30
0.0
 10
168.400276
 20
308.088931
 30
0.0
  0
ENDSEC
  0
SECTION
  2
OBJECTS
  0
DICTIONARY
  5
C
330
0
100
AcDbDictionary
  3
ACAD_GROUP
350
D
  3
ACAD_MLINESTYLE
350
17
  0
DICTIONARY
  5
D
330
C
100
AcDbDictionary
  0
DICTIONARY
  5
1A
330
C
100
AcDbDictionary
  0
DICTIONARY
  5
17
330
C
100
AcDbDictionary
  3
STANDARD
350
18
  0
DICTIONARY
  5
19
330
C
100
AcDbDictionary
  0
ENDSEC
  0
EOF
