  0
SECTION
  2
BLOCKS
  0
ENDSEC
  0
SECTION
  2
ENTITIES
  0
LINE
  8
0
 10
97.9147
 20
79.3528
 11
96.7616
 21
85.3972
  0
LINE
  8
0
 10
96.7616
 20
85.3972
 11
94.8601
 21
91.2496
  0
LINE
  8
0
 10
94.8601
 20
91.2496
 11
92.2401
 21
96.8174
  0
LINE
  8
0
 10
92.2401
 20
96.8174
 11
88.9429
 21
102.013
  0
LINE
  8
0
 10
88.9429
 20
102.013
 11
85.0205
 21
106.754
  0
LINE
  8
0
 10
85.0205
 20
106.754
 11
80.5349
 21
110.967
  0
LINE
  8
0
 10
80.5349
 20
110.967
 11
75.5566
 21
114.583
  0
LINE
  8
0
 10
75.5566
 20
114.583
 11
70.1643
 21
117.548
  0
LINE
  8
0
 10
70.1643
 20
117.548
 11
64.4429
 21
119.813
  0
LINE
  8
0
 10
64.4429
 20
119.813
 11
63.6468
 21
120.018
  0
LINE
  8
0
 10
63.6468
 20
120.018
 11
64.0313
 21
122.198
  0
LINE
  8
0
 10
64.0313
 20
122.198
 11
61.0276
 21
122.727
  0
LINE
  8
0
 10
61.0276
 20
122.727
 11
62.4168
 21
130.606
  0
LINE
  8
0
 10
62.4168
 20
130.606
 11
48.7772
 21
133.011
  0
LINE
  8
0
 10
48.7772
 20
133.011
 11
47.388
 21
125.132
  0
LINE
  8
0
 10
47.388
 20
125.132
 11
44.3844
 21
125.662
  0
LINE
  8
0
 10
44.3844
 20
125.662
 11
45.7735
 21
133.541
  0
LINE
  8
0
 10
45.7735
 20
133.541
 11
45.7243
 21
133.549
  0
LINE
  8
0
 10
45.7243
 20
133.549
 11
43.6508
 21
121.79
  0
LINE
  8
0
 10
43.6508
 20
121.79
 11
40.1194
 21
121.344
  0
LINE
  8
0
 10
40.1194
 20
121.344
 11
34.1593
 21
119.813
  0
LINE
  8
0
 10
34.1593
 20
119.813
 11
28.4379
 21
117.548
  0
LINE
  8
0
 10
28.4379
 20
117.548
 11
23.0456
 21
114.583
  0
LINE
  8
0
 10
23.0456
 20
114.583
 11
18.0674
 21
110.967
  0
LINE
  8
0
 10
18.0674
 20
110.967
 11
13.5816
 21
106.754
  0
LINE
  8
0
 10
13.5816
 20
106.754
 11
9.65929
 21
102.013
  0
LINE
  8
0
 10
9.65929
 20
102.013
 11
6.36208
 21
96.8174
  0
LINE
  8
0
 10
6.36208
 20
96.8174
 11
3.74208
 21
91.2495
  0
LINE
  8
0
 10
3.74208
 20
91.2495
 11
1.84053
 21
85.3972
  0
LINE
  8
0
 10
1.84053
 20
85.3972
 11
0.6875
 21
79.3528
  0
LINE
  8
0
 10
0.6875
 20
79.3528
 11
0.301117
 21
73.2115
  0
LINE
  8
0
 10
0.301117
 20
73.2115
 11
98.3011
 21
73.2115
  0
LINE
  8
0
 10
98.3011
 20
73.2115
 11
97.9147
 21
79.3528
  0
LINE
  8
0
 10
41.606
 20
109.905
 11
42.9952
 21
117.784
  0
LINE
  8
0
 10
42.9952
 20
117.784
 11
45.9988
 21
117.254
  0
LINE
  8
0
 10
45.9988
 20
117.254
 11
44.6096
 21
109.376
  0
LINE
  8
0
 10
44.6096
 20
109.376
 11
41.606
 21
109.905
  0
LINE
  8
0
 10
58.2492
 20
106.97
 11
59.6384
 21
114.849
  0
LINE
  8
0
 10
59.6384
 20
114.849
 11
62.6421
 21
114.319
  0
LINE
  8
0
 10
62.6421
 20
114.319
 11
61.2529
 21
106.441
  0
LINE
  8
0
 10
61.2529
 20
106.441
 11
58.2492
 21
106.97
  0
LINE
  8
0
 10
38.8276
 20
94.1482
 11
40.2168
 21
102.027
  0
LINE
  8
0
 10
40.2168
 20
102.027
 11
43.2204
 21
101.497
  0
LINE
  8
0
 10
43.2204
 20
101.497
 11
41.8313
 21
93.6186
  0
LINE
  8
0
 10
41.8313
 20
93.6186
 11
38.8276
 21
94.1482
  0
LINE
  8
0
 10
55.4709
 20
91.2136
 11
56.86
 21
99.092
  0
LINE
  8
0
 10
56.86
 20
99.092
 11
59.8637
 21
98.5624
  0
LINE
  8
0
 10
59.8637
 20
98.5624
 11
58.4745
 21
90.6839
  0
LINE
  8
0
 10
58.4745
 20
90.6839
 11
55.4709
 21
91.2136
  0
LINE
  8
0
 10
35.9827
 20
78.3015
 11
36.5123
 21
81.3051
  0
LINE
  8
0
 10
36.5123
 20
81.3051
 11
36.5615
 21
81.2965
  0
LINE
  8
0
 10
36.5615
 20
81.2965
 11
37.4384
 21
86.2698
  0
LINE
  8
0
 10
37.4384
 20
86.2698
 11
40.4421
 21
85.7401
  0
LINE
  8
0
 10
40.4421
 20
85.7401
 11
39.0529
 21
77.8617
  0
LINE
  8
0
 10
39.0529
 20
77.8617
 11
38.8137
 21
77.9039
  0
LINE
  8
0
 10
38.8137
 20
77.9039
 11
38.7964
 21
77.8054
  0
LINE
  8
0
 10
38.7964
 20
77.8054
 11
35.9827
 21
78.3015
  0
LINE
  8
0
 10
52.865
 20
75.3247
 11
52.8824
 21
75.4232
  0
LINE
  8
0
 10
52.8824
 20
75.4232
 11
52.6925
 21
75.4567
  0
LINE
  8
0
 10
52.6925
 20
75.4567
 11
54.0817
 21
83.3351
  0
LINE
  8
0
 10
54.0817
 20
83.3351
 11
57.0853
 21
82.8055
  0
LINE
  8
0
 10
57.0853
 20
82.8055
 11
55.6788
 21
74.8286
  0
LINE
  8
0
 10
55.6788
 20
74.8286
 11
52.865
 21
75.3247
  0
LINE
  8
0
 10
41.6101
 20
77.3092
 11
42.1397
 21
80.3129
  0
LINE
  8
0
 10
42.1397
 20
80.3129
 11
44.9535
 21
79.8167
  0
LINE
  8
0
 10
44.9535
 20
79.8167
 11
44.4238
 21
76.8131
  0
LINE
  8
0
 10
44.4238
 20
76.8131
 11
41.6101
 21
77.3092
  0
LINE
  8
0
 10
47.2376
 20
76.317
 11
47.7672
 21
79.3206
  0
LINE
  8
0
 10
47.7672
 20
79.3206
 11
50.5809
 21
78.8245
  0
LINE
  8
0
 10
50.5809
 20
78.8245
 11
50.0513
 21
75.8208
  0
LINE
  8
0
 10
50.0513
 20
75.8208
 11
47.2376
 21
76.317
  0
LINE
  8
0
 10
16.3357
 20
3.04999
 11
32.5214
 21
3.04999
  0
LINE
  8
0
 10
32.5214
 20
3.04999
 11
32.5214
 21
0
  0
LINE
  8
0
 10
32.5214
 20
0
 11
48.9071
 21
0
  0
LINE
  8
0
 10
48.9071
 20
0
 11
48.9071
 21
3.04999
  0
LINE
  8
0
 10
48.9071
 20
3.04999
 11
65.0928
 21
3.04999
  0
LINE
  8
0
 10
65.0928
 20
3.04999
 11
65.0928
 21
0
  0
LINE
  8
0
 10
65.0928
 20
0
 11
81.4786
 21
0
  0
LINE
  8
0
 10
81.4786
 20
0
 11
81.4786
 21
3.04999
  0
LINE
  8
0
 10
81.4786
 20
3.04999
 11
97.6643
 21
3.04999
  0
LINE
  8
0
 10
97.6643
 20
3.04999
 11
97.6643
 21
0
  0
LINE
  8
0
 10
97.6643
 20
0
 11
114
 21
0
  0
LINE
  8
0
 10
114
 20
0
 11
114
 21
8.04999
  0
LINE
  8
0
 10
114
 20
8.04999
 11
110.95
 21
8.04999
  0
LINE
  8
0
 10
110.95
 20
8.04999
 11
110.95
 21
15.95
  0
LINE
  8
0
 10
110.95
 20
15.95
 11
114
 21
15.95
  0
LINE
  8
0
 10
114
 20
15.95
 11
114
 21
24.05
  0
LINE
  8
0
 10
114
 20
24.05
 11
110.95
 21
24.05
  0
LINE
  8
0
 10
110.95
 20
24.05
 11
110.95
 21
31.95
  0
LINE
  8
0
 10
110.95
 20
31.95
 11
114
 21
31.95
  0
LINE
  8
0
 10
114
 20
31.95
 11
114
 21
40.05
  0
LINE
  8
0
 10
114
 20
40.05
 11
110.95
 21
40.05
  0
LINE
  8
0
 10
110.95
 20
40.05
 11
110.95
 21
47.95
  0
LINE
  8
0
 10
110.95
 20
47.95
 11
114
 21
47.95
  0
LINE
  8
0
 10
114
 20
47.95
 11
114
 21
56
  0
LINE
  8
0
 10
114
 20
56
 11
103.654
 21
56
  0
LINE
  8
0
 10
103.654
 20
56
 11
105.159
 21
60.6335
  0
LINE
  8
0
 10
105.159
 20
60.6335
 11
106.312
 21
66.678
  0
LINE
  8
0
 10
106.312
 20
66.678
 11
106.699
 21
72.8193
  0
LINE
  8
0
 10
106.699
 20
72.8193
 11
8.69893
 21
72.8193
  0
LINE
  8
0
 10
8.69893
 20
72.8193
 11
9.08531
 21
66.678
  0
LINE
  8
0
 10
9.08531
 20
66.678
 11
10.2384
 21
60.6335
  0
LINE
  8
0
 10
10.2384
 20
60.6335
 11
12.1399
 21
54.7812
  0
LINE
  8
0
 10
12.1399
 20
54.7812
 11
14.7599
 21
49.2134
  0
LINE
  8
0
 10
14.7599
 20
49.2134
 11
18.0571
 21
44.0179
  0
LINE
  8
0
 10
18.0571
 20
44.0179
 11
21.9795
 21
39.2765
  0
LINE
  8
0
 10
21.9795
 20
39.2765
 11
26.4651
 21
35.0642
  0
LINE
  8
0
 10
26.4651
 20
35.0642
 11
31.4434
 21
31.4473
  0
LINE
  8
0
 10
31.4434
 20
31.4473
 11
36.8357
 21
28.4828
  0
LINE
  8
0
 10
36.8357
 20
28.4828
 11
42.5571
 21
26.2176
  0
LINE
  8
0
 10
42.5571
 20
26.2176
 11
43.3531
 21
26.0132
  0
LINE
  8
0
 10
43.3531
 20
26.0132
 11
42.9687
 21
23.833
  0
LINE
  8
0
 10
42.9687
 20
23.833
 11
45.9724
 21
23.3033
  0
LINE
  8
0
 10
45.9724
 20
23.3033
 11
44.5832
 21
15.4249
  0
LINE
  8
0
 10
44.5832
 20
15.4249
 11
58.2228
 21
13.0199
  0
LINE
  8
0
 10
58.2228
 20
13.0199
 11
59.612
 21
20.8983
  0
LINE
  8
0
 10
59.612
 20
20.8983
 11
62.6156
 21
20.3687
  0
LINE
  8
0
 10
62.6156
 20
20.3687
 11
61.2265
 21
12.4902
  0
LINE
  8
0
 10
61.2265
 20
12.4902
 11
61.2757
 21
12.4815
  0
LINE
  8
0
 10
61.2757
 20
12.4815
 11
63.3492
 21
24.2411
  0
LINE
  8
0
 10
63.3492
 20
24.2411
 11
66.8806
 21
24.6873
  0
LINE
  8
0
 10
66.8806
 20
24.6873
 11
72.8407
 21
26.2176
  0
LINE
  8
0
 10
72.8407
 20
26.2176
 11
78.5621
 21
28.4828
  0
LINE
  8
0
 10
78.5621
 20
28.4828
 11
83.9544
 21
31.4473
  0
LINE
  8
0
 10
83.9544
 20
31.4473
 11
88.9326
 21
35.0642
  0
LINE
  8
0
 10
88.9326
 20
35.0642
 11
93.4184
 21
39.2765
  0
LINE
  8
0
 10
93.4184
 20
39.2765
 11
97.3407
 21
44.0178
  0
LINE
  8
0
 10
97.3407
 20
44.0178
 11
100.638
 21
49.2134
  0
LINE
  8
0
 10
100.638
 20
49.2134
 11
103.258
 21
54.7812
  0
LINE
  8
0
 10
103.258
 20
54.7812
 11
103.594
 21
55.8145
  0
LINE
  8
0
 10
103.594
 20
55.8145
 11
103.78
 21
55.2408
  0
LINE
  8
0
 10
103.78
 20
55.2408
 11
103.945
 21
54.3773
  0
LINE
  8
0
 10
103.945
 20
54.3773
 11
104
 21
53.5
  0
LINE
  8
0
 10
104
 20
53.5
 11
104
 21
17.5
  0
LINE
  8
0
 10
104
 20
17.5
 11
103.945
 21
16.6227
  0
LINE
  8
0
 10
103.945
 20
16.6227
 11
103.78
 21
15.7592
  0
LINE
  8
0
 10
103.78
 20
15.7592
 11
103.508
 21
14.9231
  0
LINE
  8
0
 10
103.508
 20
14.9231
 11
103.134
 21
14.1277
  0
LINE
  8
0
 10
103.134
 20
14.1277
 11
102.663
 21
13.3855
  0
LINE
  8
0
 10
102.663
 20
13.3855
 11
102.103
 21
12.7082
  0
LINE
  8
0
 10
102.103
 20
12.7082
 11
101.462
 21
12.1064
  0
LINE
  8
0
 10
101.462
 20
12.1064
 11
100.751
 21
11.5897
  0
LINE
  8
0
 10
100.751
 20
11.5897
 11
99.9805
 21
11.1662
  0
LINE
  8
0
 10
99.9805
 20
11.1662
 11
99.1631
 21
10.8426
  0
LINE
  8
0
 10
99.1631
 20
10.8426
 11
98.3117
 21
10.624
  0
LINE
  8
0
 10
98.3117
 20
10.624
 11
97.4395
 21
10.5138
  0
LINE
  8
0
 10
97.4395
 20
10.5138
 11
17.5605
 21
10.5138
  0
LINE
  8
0
 10
17.5605
 20
10.5138
 11
16.6883
 21
10.624
  0
LINE
  8
0
 10
16.6883
 20
10.624
 11
15.8369
 21
10.8426
  0
LINE
  8
0
 10
15.8369
 20
10.8426
 11
15.0195
 21
11.1662
  0
LINE
  8
0
 10
15.0195
 20
11.1662
 11
14.2492
 21
11.5897
  0
LINE
  8
0
 10
14.2492
 20
11.5897
 11
13.538
 21
12.1064
  0
LINE
  8
0
 10
13.538
 20
12.1064
 11
12.8972
 21
12.7082
  0
LINE
  8
0
 10
12.8972
 20
12.7082
 11
12.3369
 21
13.3855
  0
LINE
  8
0
 10
12.3369
 20
13.3855
 11
11.8659
 21
14.1277
  0
LINE
  8
0
 10
11.8659
 20
14.1277
 11
11.4916
 21
14.9231
  0
LINE
  8
0
 10
11.4916
 20
14.9231
 11
11.2199
 21
15.7592
  0
LINE
  8
0
 10
11.2199
 20
15.7592
 11
11.0552
 21
16.6227
  0
LINE
  8
0
 10
11.0552
 20
16.6227
 11
11
 21
17.5
  0
LINE
  8
0
 10
11
 20
17.5
 11
11
 21
53.5
  0
LINE
  8
0
 10
11
 20
53.5
 11
11.0552
 21
54.3773
  0
LINE
  8
0
 10
11.0552
 20
54.3773
 11
11.2199
 21
55.2408
  0
LINE
  8
0
 10
11.2199
 20
55.2408
 11
11.4666
 21
56
  0
LINE
  8
0
 10
11.4666
 20
56
 11
0
 21
56
  0
LINE
  8
0
 10
0
 20
56
 11
0
 21
47.95
  0
LINE
  8
0
 10
0
 20
47.95
 11
3
 21
47.95
  0
LINE
  8
0
 10
3
 20
47.95
 11
3
 21
40.05
  0
LINE
  8
0
 10
3
 20
40.05
 11
0
 21
40.05
  0
LINE
  8
0
 10
0
 20
40.05
 11
0
 21
31.95
  0
LINE
  8
0
 10
0
 20
31.95
 11
3
 21
31.95
  0
LINE
  8
0
 10
3
 20
31.95
 11
3
 21
24.05
  0
LINE
  8
0
 10
3
 20
24.05
 11
0
 21
24.05
  0
LINE
  8
0
 10
0
 20
24.05
 11
0
 21
15.95
  0
LINE
  8
0
 10
0
 20
15.95
 11
3
 21
15.95
  0
LINE
  8
0
 10
3
 20
15.95
 11
3
 21
8.04999
  0
LINE
  8
0
 10
3
 20
8.04999
 11
0
 21
8.04999
  0
LINE
  8
0
 10
0
 20
8.04999
 11
0
 21
0
  0
LINE
  8
0
 10
0
 20
0
 11
16.3357
 21
0
  0
LINE
  8
0
 10
16.3357
 20
0
 11
16.3357
 21
3.04999
  0
LINE
  8
0
 10
49.9147
 20
63.2253
 11
51.3212
 21
71.2022
  0
LINE
  8
0
 10
51.3212
 20
71.2022
 11
54.1349
 21
70.7061
  0
LINE
  8
0
 10
54.1349
 20
70.7061
 11
54.1176
 21
70.6076
  0
LINE
  8
0
 10
54.1176
 20
70.6076
 11
54.3075
 21
70.5741
  0
LINE
  8
0
 10
54.3075
 20
70.5741
 11
52.9183
 21
62.6956
  0
LINE
  8
0
 10
52.9183
 20
62.6956
 11
49.9147
 21
63.2253
  0
LINE
  8
0
 10
56.4191
 20
67.2063
 11
56.9487
 21
70.2099
  0
LINE
  8
0
 10
56.9487
 20
70.2099
 11
59.7624
 21
69.7138
  0
LINE
  8
0
 10
59.7624
 20
69.7138
 11
59.2328
 21
66.7102
  0
LINE
  8
0
 10
59.2328
 20
66.7102
 11
56.4191
 21
67.2063
  0
LINE
  8
0
 10
62.0465
 20
66.214
 11
62.5761
 21
69.2177
  0
LINE
  8
0
 10
62.5761
 20
69.2177
 11
65.3899
 21
68.7215
  0
LINE
  8
0
 10
65.3899
 20
68.7215
 11
64.8603
 21
65.7179
  0
LINE
  8
0
 10
64.8603
 20
65.7179
 11
62.0465
 21
66.214
  0
LINE
  8
0
 10
66.5579
 20
60.2906
 11
67.9471
 21
68.1691
  0
LINE
  8
0
 10
67.9471
 20
68.1691
 11
68.1863
 21
68.1269
  0
LINE
  8
0
 10
68.1863
 20
68.1269
 11
68.2036
 21
68.2254
  0
LINE
  8
0
 10
68.2036
 20
68.2254
 11
71.0173
 21
67.7292
  0
LINE
  8
0
 10
71.0173
 20
67.7292
 11
70.4877
 21
64.7256
  0
LINE
  8
0
 10
70.4877
 20
64.7256
 11
70.4385
 21
64.7343
  0
LINE
  8
0
 10
70.4385
 20
64.7343
 11
69.5616
 21
59.761
  0
LINE
  8
0
 10
69.5616
 20
59.761
 11
66.5579
 21
60.2906
  0
LINE
  8
0
 10
47.1363
 20
47.4684
 11
48.5255
 21
55.3468
  0
LINE
  8
0
 10
48.5255
 20
55.3468
 11
51.5291
 21
54.8172
  0
LINE
  8
0
 10
51.5291
 20
54.8172
 11
50.1399
 21
46.9387
  0
LINE
  8
0
 10
50.1399
 20
46.9387
 11
47.1363
 21
47.4684
  0
LINE
  8
0
 10
63.7795
 20
44.5337
 11
65.1687
 21
52.4122
  0
LINE
  8
0
 10
65.1687
 20
52.4122
 11
68.1724
 21
51.8825
  0
LINE
  8
0
 10
68.1724
 20
51.8825
 11
66.7832
 21
44.0041
  0
LINE
  8
0
 10
66.7832
 20
44.0041
 11
63.7795
 21
44.5337
  0
LINE
  8
0
 10
44.3579
 20
31.7114
 11
45.7471
 21
39.5899
  0
LINE
  8
0
 10
45.7471
 20
39.5899
 11
48.7507
 21
39.0603
  0
LINE
  8
0
 10
48.7507
 20
39.0603
 11
47.3616
 21
31.1818
  0
LINE
  8
0
 10
47.3616
 20
31.1818
 11
44.3579
 21
31.7114
  0
LINE
  8
0
 10
61.0012
 20
28.7768
 11
62.3904
 21
36.6552
  0
LINE
  8
0
 10
62.3904
 20
36.6552
 11
65.394
 21
36.1256
  0
LINE
  8
0
 10
65.394
 20
36.1256
 11
64.0048
 21
28.2471
  0
LINE
  8
0
 10
64.0048
 20
28.2471
 11
61.0012
 21
28.7768
  0
LINE
  8
0
 10
16.3357
 20
-137.95
 11
32.5214
 21
-137.95
  0
LINE
  8
0
 10
32.5214
 20
-137.95
 11
32.5214
 21
-141
  0
LINE
  8
0
 10
32.5214
 20
-141
 11
48.9071
 21
-141
  0
LINE
  8
0
 10
48.9071
 20
-141
 11
48.9071
 21
-137.95
  0
LINE
  8
0
 10
48.9071
 20
-137.95
 11
65.0928
 21
-137.95
  0
LINE
  8
0
 10
65.0928
 20
-137.95
 11
65.0928
 21
-141
  0
LINE
  8
0
 10
65.0928
 20
-141
 11
81.4786
 21
-141
  0
LINE
  8
0
 10
81.4786
 20
-141
 11
81.4786
 21
-137.95
  0
LINE
  8
0
 10
81.4786
 20
-137.95
 11
97.6643
 21
-137.95
  0
LINE
  8
0
 10
97.6643
 20
-137.95
 11
97.6643
 21
-141
  0
LINE
  8
0
 10
97.6643
 20
-141
 11
114
 21
-141
  0
LINE
  8
0
 10
114
 20
-141
 11
114
 21
-132.95
  0
LINE
  8
0
 10
114
 20
-132.95
 11
110.95
 21
-132.95
  0
LINE
  8
0
 10
110.95
 20
-132.95
 11
110.95
 21
-125.05
  0
LINE
  8
0
 10
110.95
 20
-125.05
 11
114
 21
-125.05
  0
LINE
  8
0
 10
114
 20
-125.05
 11
114
 21
-116.95
  0
LINE
  8
0
 10
114
 20
-116.95
 11
110.95
 21
-116.95
  0
LINE
  8
0
 10
110.95
 20
-116.95
 11
110.95
 21
-109.05
  0
LINE
  8
0
 10
110.95
 20
-109.05
 11
114
 21
-109.05
  0
LINE
  8
0
 10
114
 20
-109.05
 11
114
 21
-100.95
  0
LINE
  8
0
 10
114
 20
-100.95
 11
110.95
 21
-100.95
  0
LINE
  8
0
 10
110.95
 20
-100.95
 11
110.95
 21
-93.05
  0
LINE
  8
0
 10
110.95
 20
-93.05
 11
114
 21
-93.05
  0
LINE
  8
0
 10
114
 20
-93.05
 11
114
 21
-1
  0
LINE
  8
0
 10
114
 20
-1
 11
0
 21
-1
  0
LINE
  8
0
 10
0
 20
-1
 11
0
 21
-93.05
  0
LINE
  8
0
 10
0
 20
-93.05
 11
3
 21
-93.05
  0
LINE
  8
0
 10
3
 20
-93.05
 11
3
 21
-100.95
  0
LINE
  8
0
 10
3
 20
-100.95
 11
0
 21
-100.95
  0
LINE
  8
0
 10
0
 20
-100.95
 11
0
 21
-109.05
  0
LINE
  8
0
 10
0
 20
-109.05
 11
3
 21
-109.05
  0
LINE
  8
0
 10
3
 20
-109.05
 11
3
 21
-116.95
  0
LINE
  8
0
 10
3
 20
-116.95
 11
0
 21
-116.95
  0
LINE
  8
0
 10
0
 20
-116.95
 11
0
 21
-125.05
  0
LINE
  8
0
 10
0
 20
-125.05
 11
3
 21
-125.05
  0
LINE
  8
0
 10
3
 20
-125.05
 11
3
 21
-132.95
  0
LINE
  8
0
 10
3
 20
-132.95
 11
0
 21
-132.95
  0
LINE
  8
0
 10
0
 20
-132.95
 11
0
 21
-141
  0
LINE
  8
0
 10
0
 20
-141
 11
16.3357
 21
-141
  0
LINE
  8
0
 10
16.3357
 20
-141
 11
16.3357
 21
-137.95
  0
LINE
  8
0
 10
-3.94998
 20
-139.95
 11
-6.66428
 21
-139.95
  0
LINE
  8
0
 10
-6.66428
 20
-139.95
 11
-6.66428
 21
-136.9
  0
LINE
  8
0
 10
-6.66428
 20
-136.9
 11
-3.94998
 21
-136.9
  0
LINE
  8
0
 10
-3.94998
 20
-136.9
 11
-3.94997
 21
-123.714
  0
LINE
  8
0
 10
-3.94997
 20
-123.714
 11
-0.999985
 21
-123.714
  0
LINE
  8
0
 10
-0.999985
 20
-123.714
 11
-0.999985
 21
-107.429
  0
LINE
  8
0
 10
-0.999985
 20
-107.429
 11
-3.94997
 21
-107.429
  0
LINE
  8
0
 10
-3.94997
 20
-107.429
 11
-3.94997
 21
-91.1429
  0
LINE
  8
0
 10
-3.94997
 20
-91.1429
 11
-0.999985
 21
-91.1429
  0
LINE
  8
0
 10
-0.999985
 20
-91.1429
 11
-0.999985
 21
-74.8571
  0
LINE
  8
0
 10
-0.999985
 20
-74.8571
 11
-3.94997
 21
-74.8571
  0
LINE
  8
0
 10
-3.94997
 20
-74.8571
 11
-3.94997
 21
-58.5714
  0
LINE
  8
0
 10
-3.94997
 20
-58.5714
 11
-0.999985
 21
-58.5714
  0
LINE
  8
0
 10
-0.999985
 20
-58.5714
 11
-0.999985
 21
-42.2857
  0
LINE
  8
0
 10
-0.999985
 20
-42.2857
 11
-3.94997
 21
-42.2857
  0
LINE
  8
0
 10
-3.94997
 20
-42.2857
 11
-3.94997
 21
-29.05
  0
LINE
  8
0
 10
-3.94997
 20
-29.05
 11
-6.66426
 21
-29.05
  0
LINE
  8
0
 10
-6.66426
 20
-29.05
 11
-6.66426
 21
-26
  0
LINE
  8
0
 10
-6.66426
 20
-26
 11
-9.6214
 21
-26
  0
LINE
  8
0
 10
-9.6214
 20
-26
 11
-9.6214
 21
-29.05
  0
LINE
  8
0
 10
-9.6214
 20
-29.05
 11
-12.3785
 21
-29.05
  0
LINE
  8
0
 10
-12.3785
 20
-29.05
 11
-12.3785
 21
-26
  0
LINE
  8
0
 10
-12.3785
 20
-26
 11
-15.3357
 21
-26
  0
LINE
  8
0
 10
-15.3357
 20
-26
 11
-15.3357
 21
-29.05
  0
LINE
  8
0
 10
-15.3357
 20
-29.05
 11
-18.0928
 21
-29.05
  0
LINE
  8
0
 10
-18.0928
 20
-29.05
 11
-18.0928
 21
-26
  0
LINE
  8
0
 10
-18.0928
 20
-26
 11
-18.1
 21
-26
  0
LINE
  8
0
 10
-18.1
 20
-26
 11
-18.1
 21
-42.2857
  0
LINE
  8
0
 10
-18.1
 20
-42.2857
 11
-21
 21
-42.2857
  0
LINE
  8
0
 10
-21
 20
-42.2857
 11
-21
 21
-58.5714
  0
LINE
  8
0
 10
-21
 20
-58.5714
 11
-18.1
 21
-58.5714
  0
LINE
  8
0
 10
-18.1
 20
-58.5714
 11
-18.1
 21
-74.8571
  0
LINE
  8
0
 10
-18.1
 20
-74.8571
 11
-21
 21
-74.8571
  0
LINE
  8
0
 10
-21
 20
-74.8571
 11
-21
 21
-91.1429
  0
LINE
  8
0
 10
-21
 20
-91.1429
 11
-18.1
 21
-91.1429
  0
LINE
  8
0
 10
-18.1
 20
-91.1429
 11
-18.1
 21
-107.429
  0
LINE
  8
0
 10
-18.1
 20
-107.429
 11
-21
 21
-107.429
  0
LINE
  8
0
 10
-21
 20
-107.429
 11
-21
 21
-123.714
  0
LINE
  8
0
 10
-21
 20
-123.714
 11
-18.1
 21
-123.714
  0
LINE
  8
0
 10
-18.1
 20
-123.714
 11
-18.1
 21
-140
  0
LINE
  8
0
 10
-18.1
 20
-140
 11
-3.94998
 21
-140
  0
LINE
  8
0
 10
-3.94998
 20
-140
 11
-3.94998
 21
-139.95
  0
LINE
  8
0
 10
-12.3786
 20
-139.95
 11
-12.3786
 21
-136.9
  0
LINE
  8
0
 10
-12.3786
 20
-136.9
 11
-9.62141
 21
-136.9
  0
LINE
  8
0
 10
-9.62141
 20
-136.9
 11
-9.62141
 21
-139.95
  0
LINE
  8
0
 10
-9.62141
 20
-139.95
 11
-12.3786
 21
-139.95
  0
LINE
  8
0
 10
-18.0928
 20
-139.95
 11
-18.0928
 21
-136.9
  0
LINE
  8
0
 10
-18.0928
 20
-136.9
 11
-15.3357
 21
-136.9
  0
LINE
  8
0
 10
-15.3357
 20
-136.9
 11
-15.3357
 21
-139.95
  0
LINE
  8
0
 10
-15.3357
 20
-139.95
 11
-18.0928
 21
-139.95
  0
ENDSEC
  0
SECTION
  2
OBJECTS
  0
DICTIONARY
  0
ENDSEC
  0
EOF
